<svg xmlns="http://www.w3.org/2000/svg" xmlns:xlink="http://www.w3.org/1999/xlink" width="289.272" height="85.302" viewBox="0 0 289.272 85.302">
  <defs>
    <clipPath id="clip-path">
      <rect id="Rectangle_5522" data-name="Rectangle 5522" width="289.272" height="85.302" fill="none"/>
    </clipPath>
  </defs>
  <g id="Group_52" data-name="Group 52" transform="translate(0 0)">
    <g id="Group_50" data-name="Group 50" transform="translate(0 0)" clip-path="url(#clip-path)">
      <path id="Path_100" data-name="Path 100" d="M0,69.907,4.068,58.471a9.343,9.343,0,0,0,5,1.353A4.284,4.284,0,0,0,12.539,58.3a6.881,6.881,0,0,0,1.268-4.489V9.17H29.9V53.9q0,8.466-4.952,13.425T11.184,72.279Q4.152,72.279,0,69.907" transform="translate(0 13.023)" fill="#fff"/>
      <path id="Path_101" data-name="Path 101" d="M7.682,14.654a7.89,7.89,0,0,1-2.711-6.1,7.889,7.889,0,0,1,2.711-6.1A10.167,10.167,0,0,1,14.795,0a10.541,10.541,0,0,1,7.118,2.331A7.53,7.53,0,0,1,24.623,8.3a8.209,8.209,0,0,1-2.711,6.309,10.076,10.076,0,0,1-7.118,2.5,10.167,10.167,0,0,1-7.113-2.459" transform="translate(7.06 0)" fill="#fb4551"/>
      <path id="Path_102" data-name="Path 102" d="M51.683,14.064Q45.671,8.851,34.233,8.856a43.864,43.864,0,0,0-10.968,1.4,29.961,29.961,0,0,0-9.274,3.938l5.419,10.922a17.981,17.981,0,0,1,5.76-2.921,22.409,22.409,0,0,1,6.694-1.058q9.315,0,9.739,7.285H32.457q-10.419,0-15.417,3.6a11.756,11.756,0,0,0-5,10.121,13.366,13.366,0,0,0,1.992,7.246,13.677,13.677,0,0,0,5.886,5.039,21.3,21.3,0,0,0,9.233,1.861q10.081,0,13.553-6.692v5.932H57.7v-25.5q0-10.756-6.014-15.968M41.6,40.79a7.562,7.562,0,0,1-3.049,3.981,8.919,8.919,0,0,1-4.913,1.355,6.929,6.929,0,0,1-4.4-1.271,4.09,4.09,0,0,1-1.609-3.391q0-4.658,7.028-4.659H41.6Z" transform="translate(17.099 12.577)" fill="#fff"/>
      <path id="Path_103" data-name="Path 103" d="M72.978,43.052V55.083H30.625V45.6l21.261-24.48H31.218V9.17H72.131v9.4L50.87,43.052Z" transform="translate(43.493 13.023)" fill="#fff"/>
      <path id="Path_104" data-name="Path 104" d="M95.972,32.656a24.131,24.131,0,0,0-3.262-12.75,21.628,21.628,0,0,0-8.851-8.217A27.138,27.138,0,0,0,71.407,8.856,27.256,27.256,0,0,0,58.447,11.9a22.72,22.72,0,0,0-9.02,8.429,22.97,22.97,0,0,0-3.262,12.157A22.451,22.451,0,0,0,58.956,53.24,31.237,31.237,0,0,0,73.1,56.289q12.877,0,19.567-7.454L84.2,40.023a16.943,16.943,0,0,1-4.872,3.054,15.89,15.89,0,0,1-5.716.932,13.152,13.152,0,0,1-7.328-1.91,9.345,9.345,0,0,1-3.94-5.46H95.718q.254-3.815.254-3.984M62.09,28.169a9.575,9.575,0,0,1,3.175-5.762,10.211,10.211,0,0,1,12.452,0,9.565,9.565,0,0,1,3.178,5.762Z" transform="translate(65.563 12.577)" fill="#fff"/>
      <path id="Path_105" data-name="Path 105" d="M109.99,13.937Q115.2,19.02,115.2,29.272V55.531H99.106V31.9q0-9.4-7.539-9.4A8.6,8.6,0,0,0,84.919,25.2q-2.5,2.715-2.5,8.137V55.531H66.325V9.617H81.657v5a18.305,18.305,0,0,1,6.438-4.276,21.87,21.87,0,0,1,8.132-1.481q8.553,0,13.764,5.082" transform="translate(94.193 12.575)" fill="#fff"/>
      <path id="Path_106" data-name="Path 106" d="M136.08,32.656a24.13,24.13,0,0,0-3.26-12.75,21.634,21.634,0,0,0-8.853-8.217,28.931,28.931,0,0,0-25.412.213,22.664,22.664,0,0,0-12.28,20.586A22.454,22.454,0,0,0,99.063,53.24a31.244,31.244,0,0,0,14.146,3.049q12.877,0,19.57-7.454l-8.471-8.812a16.943,16.943,0,0,1-4.872,3.054,15.88,15.88,0,0,1-5.716.932,13.152,13.152,0,0,1-7.328-1.91,9.345,9.345,0,0,1-3.94-5.46h33.377q.254-3.815.252-3.984M102.2,28.169a9.575,9.575,0,0,1,3.175-5.762,10.218,10.218,0,0,1,12.457,0A9.587,9.587,0,0,1,121,28.169Z" transform="translate(122.526 12.577)" fill="#fff"/>
      <path id="Path_107" data-name="Path 107" d="M140.95,59.234a16.331,16.331,0,0,1-4.957,1.948,27.764,27.764,0,0,1-6.227.675q-8.978,0-13.807-4.4t-4.826-13.127V28.907h-6.694V16.881h6.694V4.935h16.092V16.881h10.506V28.907H127.225v15.25a5.4,5.4,0,0,0,1.314,3.851,4.588,4.588,0,0,0,3.514,1.4,8.531,8.531,0,0,0,4.913-1.44Z" transform="translate(148.322 7.008)" fill="#fff"/>
    </g>
  </g>
</svg>
