<svg xmlns="http://www.w3.org/2000/svg" xmlns:xlink="http://www.w3.org/1999/xlink" width="169" height="169" viewBox="0 0 169 169">
  <defs>
    <clipPath id="clip-path">
      <rect id="Rectangle_5491" data-name="Rectangle 5491" width="87.395" height="84.663" fill="none"/>
    </clipPath>
  </defs>
  <g id="Group_18129" data-name="Group 18129" transform="translate(-1037 -5528)">
    <circle id="Ellipse_6" data-name="Ellipse 6" cx="84.5" cy="84.5" r="84.5" transform="translate(1037 5528)" fill="#fb4551"/>
    <g id="Group_38" data-name="Group 38" transform="translate(1077.802 5570.168)">
      <g id="Group_18" data-name="Group 18" transform="translate(0 0)" clip-path="url(#clip-path)">
        <path id="Path_43" data-name="Path 43" d="M40.082,34.067H37.351a1.613,1.613,0,1,0-3.227,0H31.393a4.344,4.344,0,1,1,8.689,0" transform="translate(26.298 24.898)" fill="#fff"/>
        <path id="Path_44" data-name="Path 44" d="M36.84,32.851H34.11a1.614,1.614,0,0,0-3.229,0H28.15a4.345,4.345,0,0,1,8.69,0" transform="translate(23.581 23.88)" fill="#fff"/>
        <rect id="Rectangle_5479" data-name="Rectangle 5479" width="2.731" height="2.979" transform="translate(51.731 54.497)" fill="#fff"/>
        <rect id="Rectangle_5480" data-name="Rectangle 5480" width="2.731" height="2.981" transform="translate(57.691 56.73)" fill="#fff"/>
        <path id="Path_45" data-name="Path 45" d="M28.62,61.82l-2.957-3.258a16.756,16.756,0,0,1-3.137-4.852C21.093,50.2,17.988,42.6,16.541,39.075c-.674-1.643.447-3.628,2.551-4.519a4.345,4.345,0,0,1,5.7,2.312l1.121,2.8V25.341a4.349,4.349,0,1,1,8.69,0l.143,8.464a4.347,4.347,0,0,1,6.028,4.006H38.039a1.614,1.614,0,0,0-3.229,0,1.365,1.365,0,0,1-1.353,1.365h-.013a1.365,1.365,0,0,1-1.365-1.343l-.211-12.469a1.626,1.626,0,1,0-3.229-.024V46.751a1.366,1.366,0,0,1-2.633.509L22.26,37.908a1.612,1.612,0,0,0-2.1-.836c-.827.349-1.081.875-1.075,1.016,1.433,3.482,4.541,11.081,5.96,14.547a14.07,14.07,0,0,0,2.646,4.093l2.957,3.256Z" transform="translate(13.693 17.428)" fill="#fff"/>
        <path id="Path_46" data-name="Path 46" d="M34.683,52.322H31.952a10.662,10.662,0,0,1,1.505-4.774l2.464-4.925a9.128,9.128,0,0,0,.961-4.067V32.087h2.731v6.469a11.891,11.891,0,0,1-1.248,5.289L35.9,48.781a8.365,8.365,0,0,0-1.213,3.541" transform="translate(26.766 26.878)" fill="#fff"/>
        <path id="Path_47" data-name="Path 47" d="M42.492,49.8H22.63V41.612H42.492ZM25.361,47.074h14.4V44.343h-14.4Z" transform="translate(18.957 34.858)" fill="#fff"/>
        <path id="Path_48" data-name="Path 48" d="M17.844,39.932a16.386,16.386,0,1,1,26.812,0l-2.233-1.575a13.655,13.655,0,1,0-22.346,0Z" transform="translate(12.449 11.826)" fill="#fff"/>
        <path id="Path_49" data-name="Path 49" d="M38.6,36.767,36.55,34.958a9.558,9.558,0,1,0-14.341,0L20.16,36.765a12.291,12.291,0,1,1,18.438,0" transform="translate(14.317 13.694)" fill="#fff"/>
        <path id="Path_50" data-name="Path 50" d="M35.024,30.048l-2.5-1.093a5.463,5.463,0,1,0-10.017,0L20,30.044a8.193,8.193,0,1,1,15.023,0" transform="translate(16.183 15.561)" fill="#fff"/>
        <path id="Path_51" data-name="Path 51" d="M16.963,45.043a20.281,20.281,0,0,1-4.388-12.671A20.483,20.483,0,1,1,50.8,42.615l-2.363-1.369A17.755,17.755,0,1,0,19.11,43.352Z" transform="translate(10.534 9.959)" fill="#fff"/>
        <path id="Path_52" data-name="Path 52" d="M26.89,13.656a6.828,6.828,0,1,1,6.827-6.829,6.835,6.835,0,0,1-6.827,6.829m0-10.925a4.1,4.1,0,1,0,4.1,4.1,4.1,4.1,0,0,0-4.1-4.1" transform="translate(16.807 -0.001)" fill="#fff"/>
        <rect id="Rectangle_5481" data-name="Rectangle 5481" width="2.731" height="2.731" transform="translate(42.331 5.462)" fill="#fff"/>
        <rect id="Rectangle_5482" data-name="Rectangle 5482" width="2.731" height="10.925" transform="translate(42.331 12.289)" fill="#fff"/>
        <path id="Path_53" data-name="Path 53" d="M12.7,19.533a6.83,6.83,0,1,1,4.828-2,6.778,6.778,0,0,1-4.828,2m0-10.925a4.1,4.1,0,0,0-2.9,6.992,4.2,4.2,0,0,0,5.794,0,4.1,4.1,0,0,0-2.9-6.992" transform="translate(4.923 4.922)" fill="#fff"/>
        <rect id="Rectangle_5483" data-name="Rectangle 5483" width="2.731" height="2.731" transform="translate(15.696 17.626) rotate(-45)" fill="#fff"/>
        <rect id="Rectangle_5484" data-name="Rectangle 5484" width="2.731" height="10.925" transform="translate(20.523 22.453) rotate(-45)" fill="#fff"/>
        <path id="Path_54" data-name="Path 54" d="M6.827,33.719a6.828,6.828,0,1,1,6.827-6.829,6.835,6.835,0,0,1-6.827,6.829m0-10.925a4.1,4.1,0,1,0,4.1,4.1,4.1,4.1,0,0,0-4.1-4.1" transform="translate(0 16.806)" fill="#fff"/>
        <rect id="Rectangle_5485" data-name="Rectangle 5485" width="2.731" height="2.731" transform="translate(5.462 42.331)" fill="#fff"/>
        <rect id="Rectangle_5486" data-name="Rectangle 5486" width="12.291" height="2.731" transform="translate(12.289 42.331)" fill="#fff"/>
        <path id="Path_55" data-name="Path 55" d="M46.953,33.719A6.828,6.828,0,1,1,53.78,26.89a6.835,6.835,0,0,1-6.827,6.829m0-10.925a4.1,4.1,0,1,0,4.1,4.1,4.1,4.1,0,0,0-4.1-4.1" transform="translate(33.613 16.806)" fill="#fff"/>
        <rect id="Rectangle_5487" data-name="Rectangle 5487" width="2.731" height="2.731" transform="translate(79.201 42.331)" fill="#fff"/>
        <rect id="Rectangle_5488" data-name="Rectangle 5488" width="12.291" height="2.731" transform="translate(62.814 42.331)" fill="#fff"/>
        <path id="Path_56" data-name="Path 56" d="M41.077,19.533a6.83,6.83,0,1,1,4.828-2,6.784,6.784,0,0,1-4.828,2m0-10.925a4.1,4.1,0,0,0-2.9,6.992,4.194,4.194,0,0,0,5.792,0,4.1,4.1,0,0,0-2.9-6.992" transform="translate(28.691 4.922)" fill="#fff"/>
        <rect id="Rectangle_5489" data-name="Rectangle 5489" width="2.731" height="2.731" transform="translate(67.837 17.626) rotate(-45)" fill="#fff"/>
        <rect id="Rectangle_5490" data-name="Rectangle 5490" width="10.925" height="2.731" transform="translate(57.215 28.248) rotate(-45)" fill="#fff"/>
      </g>
    </g>
  </g>
</svg>
