<svg xmlns="http://www.w3.org/2000/svg" xmlns:xlink="http://www.w3.org/1999/xlink" width="169" height="169" viewBox="0 0 169 169">
  <defs>
    <clipPath id="clip-path">
      <rect id="Rectangle_5466" data-name="Rectangle 5466" width="79" height="79" transform="translate(-0.432 -0.432)" fill="none"/>
    </clipPath>
  </defs>
  <g id="Group_18128" data-name="Group 18128" transform="translate(-714 -4951)">
    <circle id="Ellipse_5" data-name="Ellipse 5" cx="84.5" cy="84.5" r="84.5" transform="translate(714 4951)" fill="#fb4551"/>
    <g id="Group_36" data-name="Group 36" transform="translate(759.052 4996.505)">
      <g id="Group_15" data-name="Group 15" transform="translate(0.38 -0.073)" clip-path="url(#clip-path)">
        <path id="Path_23" data-name="Path 23" d="M38.127,78.794H6.355A6.363,6.363,0,0,1,0,72.44V6.354A6.362,6.362,0,0,1,6.355,0H38.127a6.361,6.361,0,0,1,6.354,6.354v8.9H41.939v-8.9a3.818,3.818,0,0,0-3.813-3.813H6.355A3.818,3.818,0,0,0,2.542,6.354V72.44a3.818,3.818,0,0,0,3.813,3.813H38.127a3.818,3.818,0,0,0,3.813-3.813V61h2.541V72.44a6.362,6.362,0,0,1-6.354,6.354" transform="translate(-0.222 -0.056)" fill="#fff"/>
        <rect id="Rectangle_5456" data-name="Rectangle 5456" width="8.896" height="2.542" transform="translate(17.569 71.112)" fill="#fff"/>
        <rect id="Rectangle_5457" data-name="Rectangle 5457" width="41.939" height="2.541" transform="translate(1.049 66.03)" fill="#fff"/>
        <rect id="Rectangle_5458" data-name="Rectangle 5458" width="41.939" height="2.542" transform="translate(1.049 7.569)" fill="#fff"/>
        <path id="Path_24" data-name="Path 24" d="M67.818,53.444H47.484V38.194H67.818ZM50.025,50.9h15.25V40.735H50.025Z" transform="translate(10.754 8.773)" fill="#fff"/>
        <path id="Path_25" data-name="Path 25" d="M47.173,53.444H26.839V38.194H47.173ZM29.38,50.9H44.63V40.735H29.38Z" transform="translate(5.982 8.773)" fill="#fff"/>
        <path id="Path_26" data-name="Path 26" d="M26.528,53.444H6.194V38.194H26.528ZM8.735,50.9h15.25V40.735H8.735Z" transform="translate(1.21 8.773)" fill="#fff"/>
        <path id="Path_27" data-name="Path 27" d="M36.767,29.146a8.9,8.9,0,1,1,8.9-8.9,8.907,8.907,0,0,1-8.9,8.9m0-15.25a6.355,6.355,0,1,0,6.354,6.354A6.362,6.362,0,0,0,36.767,13.9" transform="translate(6.221 2.569)" fill="#fff"/>
        <rect id="Rectangle_5459" data-name="Rectangle 5459" width="2.542" height="17.793" transform="translate(41.716 30.445)" fill="#fff"/>
        <path id="Path_28" data-name="Path 28" d="M66.8,41.373H64.255V33.748a1.272,1.272,0,0,0-1.272-1.271H17.232a1.271,1.271,0,0,0-1.271,1.271v7.626H13.419V33.748a3.816,3.816,0,0,1,3.813-3.812H62.983A3.816,3.816,0,0,1,66.8,33.748Z" transform="translate(2.88 6.864)" fill="#fff"/>
        <rect id="Rectangle_5460" data-name="Rectangle 5460" width="2.542" height="2.542" transform="translate(46.8 31.715)" fill="#fff"/>
        <rect id="Rectangle_5461" data-name="Rectangle 5461" width="2.541" height="2.542" transform="translate(51.884 31.715)" fill="#fff"/>
        <rect id="Rectangle_5462" data-name="Rectangle 5462" width="2.541" height="2.542" transform="translate(56.968 31.715)" fill="#fff"/>
        <rect id="Rectangle_5463" data-name="Rectangle 5463" width="2.541" height="2.542" transform="translate(26.467 31.715)" fill="#fff"/>
        <rect id="Rectangle_5464" data-name="Rectangle 5464" width="2.542" height="2.542" transform="translate(31.549 31.715)" fill="#fff"/>
        <rect id="Rectangle_5465" data-name="Rectangle 5465" width="2.542" height="2.542" transform="translate(36.633 31.715)" fill="#fff"/>
      </g>
    </g>
  </g>
</svg>
