<svg xmlns="http://www.w3.org/2000/svg" xmlns:xlink="http://www.w3.org/1999/xlink" width="169" height="169" viewBox="0 0 169 169">
  <defs>
    <clipPath id="clip-path">
      <rect id="Rectangle_5445" data-name="Rectangle 5445" width="79" height="79" transform="translate(0 0)" fill="none"/>
    </clipPath>
  </defs>
  <g id="Group_18131" data-name="Group 18131" transform="translate(-1038 -6524)">
    <circle id="Ellipse_7" data-name="Ellipse 7" cx="84.5" cy="84.5" r="84.5" transform="translate(1038 6524)" fill="#fb4551"/>
    <g id="Group_41" data-name="Group 41" transform="translate(1082.066 6567.934)">
      <g id="Group_6" data-name="Group 6" transform="translate(0.933 1.066)" clip-path="url(#clip-path)">
        <path id="Path_15" data-name="Path 15" d="M73.666,46.525H63.327V43.941H73.666a3.882,3.882,0,0,0,3.877-3.877V6.462a3.881,3.881,0,0,0-3.877-3.877H6.463A3.881,3.881,0,0,0,2.585,6.462v33.6a3.882,3.882,0,0,0,3.877,3.877h7.754v2.584H6.463A6.47,6.47,0,0,1,0,40.064V6.462A6.47,6.47,0,0,1,6.463,0h67.2a6.468,6.468,0,0,1,6.462,6.462v33.6a6.469,6.469,0,0,1-6.462,6.462" transform="translate(-0.44 -0.687)" fill="#fff"/>
        <rect id="Rectangle_5435" data-name="Rectangle 5435" width="2.585" height="10.339" transform="translate(71.932 17.406)" fill="#fff"/>
        <rect id="Rectangle_5436" data-name="Rectangle 5436" width="2.584" height="43.941" transform="translate(66.764 0.605)" fill="#fff"/>
        <rect id="Rectangle_5437" data-name="Rectangle 5437" width="2.585" height="43.941" transform="translate(7.313 0.605)" fill="#fff"/>
        <path id="Path_16" data-name="Path 16" d="M44.2,68.989l-.8-2.456a23.263,23.263,0,1,0-14.454,0l-.8,2.456a25.848,25.848,0,1,1,16.059,0" transform="translate(2.161 3.995)" fill="#fff"/>
        <rect id="Rectangle_5438" data-name="Rectangle 5438" width="31.017" height="2.584" transform="translate(22.823 4.483)" fill="#fff"/>
        <rect id="Rectangle_5439" data-name="Rectangle 5439" width="31.017" height="2.584" transform="translate(22.823 9.653)" fill="#fff"/>
        <rect id="Rectangle_5440" data-name="Rectangle 5440" width="31.017" height="2.584" transform="translate(22.823 14.822)" fill="#fff"/>
        <path id="Path_17" data-name="Path 17" d="M32.788,74.318a9.058,9.058,0,0,1-9.047-9.047V35.117l9.047-12.063,9.047,12.063V65.271a9.058,9.058,0,0,1-9.047,9.047M26.326,35.977V65.271a6.462,6.462,0,1,0,12.924,0V35.977l-6.463-8.615Z" transform="translate(5.542 5.122)" fill="#fff"/>
        <rect id="Rectangle_5441" data-name="Rectangle 5441" width="15.508" height="2.584" transform="translate(30.577 39.376)" fill="#fff"/>
        <rect id="Rectangle_5442" data-name="Rectangle 5442" width="2.585" height="21.97" transform="translate(37.038 40.67)" fill="#fff"/>
        <rect id="Rectangle_5443" data-name="Rectangle 5443" width="15.508" height="2.584" transform="translate(30.577 66.517)" fill="#fff"/>
        <rect id="Rectangle_5444" data-name="Rectangle 5444" width="15.508" height="2.584" transform="translate(30.577 61.347)" fill="#fff"/>
      </g>
    </g>
  </g>
</svg>
