<svg xmlns="http://www.w3.org/2000/svg" xmlns:xlink="http://www.w3.org/1999/xlink" width="50" height="50" viewBox="0 0 50 50">
  <defs>
    <clipPath id="clip-path">
      <rect id="Rectangle_5455" data-name="Rectangle 5455" width="39.98" height="30.952" fill="none"/>
    </clipPath>
  </defs>
  <g id="Group_18116" data-name="Group 18116" transform="translate(7172 -809)">
    <rect id="Rectangle_7263" data-name="Rectangle 7263" width="50" height="50" transform="translate(-7172 809)" fill="none"/>
    <g id="Group_18116-2" data-name="Group 18116" transform="translate(-7167 819.001)">
      <path id="Path_18" data-name="Path 18" d="M1.29,1.289h37.4V29.662H1.29ZM0,30.952H39.98V0H0Z" fill="#fff"/>
      <rect id="Rectangle_5446" data-name="Rectangle 5446" width="1.289" height="1.289" transform="translate(2.579 2.579)" fill="#fff"/>
      <rect id="Rectangle_5447" data-name="Rectangle 5447" width="1.29" height="1.289" transform="translate(5.159 2.579)" fill="#fff"/>
      <rect id="Rectangle_5448" data-name="Rectangle 5448" width="1.289" height="1.289" transform="translate(7.739 2.579)" fill="#fff"/>
      <rect id="Rectangle_5449" data-name="Rectangle 5449" width="38.691" height="1.289" transform="translate(0.645 5.159)" fill="#fff"/>
      <g id="Group_13" data-name="Group 13" transform="translate(0 0)">
        <g id="Group_12" data-name="Group 12" clip-path="url(#clip-path)">
          <path id="Path_19" data-name="Path 19" d="M27.861,33.022H17.543a10.318,10.318,0,0,1,0-20.635H27.861a10.318,10.318,0,0,1,0,20.635M17.543,13.677a9.028,9.028,0,1,0,0,18.055H27.861a9.028,9.028,0,1,0,0-18.055Z" transform="translate(-2.712 -4.649)" fill="#fff"/>
          <path id="Path_20" data-name="Path 20" d="M20.675,31.391l-5.54-6.232,5.54-6.232.963.856L16.86,25.159l4.778,5.375Z" transform="translate(-5.68 -7.104)" fill="#fff"/>
          <path id="Path_21" data-name="Path 21" d="M39.418,31.391l-.963-.856,4.778-5.375-4.778-5.375.963-.856,5.54,6.232Z" transform="translate(-14.433 -7.104)" fill="#fff"/>
          <rect id="Rectangle_5450" data-name="Rectangle 5450" width="12.702" height="1.29" transform="translate(16.821 23.596) rotate(-66.029)" fill="#fff"/>
          <rect id="Rectangle_5451" data-name="Rectangle 5451" width="1.29" height="1.289" transform="translate(25.149 17.411)" fill="#fff"/>
          <rect id="Rectangle_5452" data-name="Rectangle 5452" width="1.289" height="1.289" transform="translate(22.569 17.411)" fill="#fff"/>
          <rect id="Rectangle_5453" data-name="Rectangle 5453" width="1.29" height="1.289" transform="translate(16.121 17.411)" fill="#fff"/>
          <rect id="Rectangle_5454" data-name="Rectangle 5454" width="1.289" height="1.289" transform="translate(13.542 17.411)" fill="#fff"/>
        </g>
      </g>
    </g>
  </g>
</svg>
