<svg xmlns="http://www.w3.org/2000/svg" xmlns:xlink="http://www.w3.org/1999/xlink" width="50" height="50" viewBox="0 0 50 50">
  <defs>
    <clipPath id="clip-path">
      <rect id="Rectangle_5500" data-name="Rectangle 5500" width="39.534" height="39.523" fill="none"/>
    </clipPath>
  </defs>
  <g id="Group_18120" data-name="Group 18120" transform="translate(7367 -889)">
    <rect id="Rectangle_7266" data-name="Rectangle 7266" width="50" height="50" transform="translate(-7367 889)" fill="none"/>
    <g id="Group_18120-2" data-name="Group 18120" transform="translate(-7361 894)">
      <g id="Group_20" data-name="Group 20" transform="translate(0 0)" clip-path="url(#clip-path)">
        <path id="Path_57" data-name="Path 57" d="M36.346,39.637H3.189A3.192,3.192,0,0,1,0,36.449V13.493A3.192,3.192,0,0,1,3.189,10.3H6.377v1.276H3.189a1.915,1.915,0,0,0-1.913,1.912V36.449a1.915,1.915,0,0,0,1.913,1.913H36.346a1.915,1.915,0,0,0,1.913-1.913V13.493a1.915,1.915,0,0,0-1.913-1.912H33.158V10.3h3.188a3.192,3.192,0,0,1,3.188,3.188V36.449a3.192,3.192,0,0,1-3.188,3.188" transform="translate(0 -3.94)" fill="#fff"/>
        <rect id="Rectangle_5492" data-name="Rectangle 5492" width="1.275" height="3.826" transform="translate(26.781 35.059)" fill="#fff"/>
        <rect id="Rectangle_5493" data-name="Rectangle 5493" width="1.275" height="3.826" transform="translate(11.478 35.059)" fill="#fff"/>
        <rect id="Rectangle_5494" data-name="Rectangle 5494" width="21.68" height="1.275" transform="translate(8.927 38.248)" fill="#fff"/>
        <rect id="Rectangle_5495" data-name="Rectangle 5495" width="38.259" height="1.275" transform="translate(0.637 30.596)" fill="#fff"/>
        <path id="Path_58" data-name="Path 58" d="M23.318,38.337a6.341,6.341,0,0,1-2.7-.608l-9.809-4.646a2.652,2.652,0,0,1,0-4.795l2.886-1.367.545,1.152L11.353,29.44a1.378,1.378,0,0,0,0,2.491l9.809,4.646a5.122,5.122,0,0,0,4.31,0l9.811-4.646a1.378,1.378,0,0,0,0-2.491L32.4,28.073l.545-1.152,2.885,1.367a2.652,2.652,0,0,1,0,4.795l-9.811,4.646a6.336,6.336,0,0,1-2.7.608" transform="translate(-3.551 -10.292)" fill="#fff"/>
        <path id="Path_59" data-name="Path 59" d="M23.318,28.014a6.341,6.341,0,0,1-2.7-.608L10.808,22.76a2.653,2.653,0,0,1,0-4.795L13.693,16.6l.545,1.152-2.885,1.367a1.378,1.378,0,0,0,0,2.491l9.809,4.646a5.122,5.122,0,0,0,4.31,0l9.811-4.646a1.378,1.378,0,0,0,0-2.491L32.4,17.75l.545-1.152,2.885,1.367a2.653,2.653,0,0,1,0,4.795l-9.811,4.646a6.337,6.337,0,0,1-2.7.608" transform="translate(-3.551 -6.345)" fill="#fff"/>
        <path id="Path_60" data-name="Path 60" d="M23.318,15.293a6.341,6.341,0,0,1-2.7-.608l-9.809-4.646a2.653,2.653,0,0,1,0-4.8L20.618.6a6.411,6.411,0,0,1,5.4,0l9.809,4.646a2.653,2.653,0,0,1,0,4.8l-9.811,4.646a6.337,6.337,0,0,1-2.7.608m0-14.028a5.06,5.06,0,0,0-2.155.484L11.353,6.4a1.378,1.378,0,0,0,0,2.491l9.809,4.646a5.122,5.122,0,0,0,4.31,0l9.811-4.646a1.378,1.378,0,0,0,0-2.491L25.474,1.749a5.067,5.067,0,0,0-2.155-.484" transform="translate(-3.551 0)" fill="#fff"/>
        <path id="Path_61" data-name="Path 61" d="M30.027,13.342c-1.758,0-3.188-1.144-3.188-2.551s1.43-2.55,3.188-2.55,3.188,1.143,3.188,2.55-1.43,2.551-3.188,2.551m0-3.826c-1.037,0-1.913.584-1.913,1.275s.876,1.276,1.913,1.276,1.913-.584,1.913-1.276-.877-1.275-1.913-1.275" transform="translate(-10.26 -3.151)" fill="#fff"/>
        <rect id="Rectangle_5496" data-name="Rectangle 5496" width="1.275" height="1.275" transform="translate(24.231 7.003)" fill="#fff"/>
        <rect id="Rectangle_5497" data-name="Rectangle 5497" width="1.275" height="1.275" transform="translate(26.781 7.003)" fill="#fff"/>
        <rect id="Rectangle_5498" data-name="Rectangle 5498" width="1.276" height="1.275" transform="translate(14.028 7.003)" fill="#fff"/>
        <rect id="Rectangle_5499" data-name="Rectangle 5499" width="1.275" height="1.275" transform="translate(11.478 7.003)" fill="#fff"/>
      </g>
    </g>
  </g>
</svg>
