<svg xmlns="http://www.w3.org/2000/svg" xmlns:xlink="http://www.w3.org/1999/xlink" width="50" height="50" viewBox="0 0 50 50">
  <defs>
    <clipPath id="clip-path">
      <rect id="Rectangle_5466" data-name="Rectangle 5466" width="44" height="44" fill="none"/>
    </clipPath>
  </defs>
  <g id="Group_18117" data-name="Group 18117" transform="translate(7118 -807)">
    <g id="Group_18118" data-name="Group 18118">
      <rect id="Rectangle_7264" data-name="Rectangle 7264" width="50" height="50" transform="translate(-7118 807)" fill="none"/>
      <g id="Group_18117-2" data-name="Group 18117" transform="translate(-7115 810)">
        <g id="Group_15" data-name="Group 15" clip-path="url(#clip-path)">
          <path id="Path_23" data-name="Path 23" d="M21.291,44H3.549A3.553,3.553,0,0,1,0,40.452V3.548A3.553,3.553,0,0,1,3.549,0H21.291a3.552,3.552,0,0,1,3.548,3.548V8.516H23.42V3.548a2.132,2.132,0,0,0-2.129-2.129H3.549A2.132,2.132,0,0,0,1.42,3.548v36.9a2.132,2.132,0,0,0,2.129,2.129H21.291a2.132,2.132,0,0,0,2.129-2.129V34.064h1.419v6.388A3.552,3.552,0,0,1,21.291,44" fill="#fff"/>
          <rect id="Rectangle_5456" data-name="Rectangle 5456" width="4.968" height="1.42" transform="translate(9.935 39.742)" fill="#fff"/>
          <rect id="Rectangle_5457" data-name="Rectangle 5457" width="23.42" height="1.419" transform="translate(0.71 36.904)" fill="#fff"/>
          <rect id="Rectangle_5458" data-name="Rectangle 5458" width="23.42" height="1.42" transform="translate(0.71 4.258)" fill="#fff"/>
          <path id="Path_24" data-name="Path 24" d="M58.839,46.71H47.484V38.194H58.839ZM48.9,45.29h8.516V39.613H48.9Z" transform="translate(-14.839 -11.936)" fill="#fff"/>
          <path id="Path_25" data-name="Path 25" d="M38.194,46.71H26.839V38.194H38.194Zm-9.936-1.42h8.516V39.613H28.258Z" transform="translate(-8.387 -11.936)" fill="#fff"/>
          <path id="Path_26" data-name="Path 26" d="M17.549,46.71H6.194V38.194H17.549ZM7.613,45.29h8.516V39.613H7.613Z" transform="translate(-1.936 -11.936)" fill="#fff"/>
          <path id="Path_27" data-name="Path 27" d="M32.839,21.29a4.968,4.968,0,1,1,4.968-4.968,4.974,4.974,0,0,1-4.968,4.968m0-8.516a3.549,3.549,0,1,0,3.548,3.548,3.552,3.552,0,0,0-3.548-3.548" transform="translate(-8.71 -3.548)" fill="#fff"/>
          <rect id="Rectangle_5459" data-name="Rectangle 5459" width="1.42" height="9.936" transform="translate(23.419 17.032)" fill="#fff"/>
          <path id="Path_28" data-name="Path 28" d="M43.226,36.323H41.807V32.065a.71.71,0,0,0-.71-.71H15.548a.71.71,0,0,0-.71.71v4.258h-1.42V32.065a2.131,2.131,0,0,1,2.129-2.129H41.1a2.131,2.131,0,0,1,2.129,2.129Z" transform="translate(-4.193 -9.355)" fill="#fff"/>
          <rect id="Rectangle_5460" data-name="Rectangle 5460" width="1.42" height="1.42" transform="translate(26.258 17.742)" fill="#fff"/>
          <rect id="Rectangle_5461" data-name="Rectangle 5461" width="1.419" height="1.42" transform="translate(29.097 17.742)" fill="#fff"/>
          <rect id="Rectangle_5462" data-name="Rectangle 5462" width="1.419" height="1.42" transform="translate(31.936 17.742)" fill="#fff"/>
          <rect id="Rectangle_5463" data-name="Rectangle 5463" width="1.419" height="1.42" transform="translate(14.904 17.742)" fill="#fff"/>
          <rect id="Rectangle_5464" data-name="Rectangle 5464" width="1.42" height="1.42" transform="translate(17.742 17.742)" fill="#fff"/>
          <rect id="Rectangle_5465" data-name="Rectangle 5465" width="1.42" height="1.42" transform="translate(20.58 17.742)" fill="#fff"/>
        </g>
      </g>
    </g>
  </g>
</svg>
