<svg xmlns="http://www.w3.org/2000/svg" xmlns:xlink="http://www.w3.org/1999/xlink" width="50" height="50" viewBox="0 0 50 50">
  <defs>
    <clipPath id="clip-path">
      <rect id="Rectangle_5445" data-name="Rectangle 5445" width="43" height="43" transform="translate(0 0.133)" fill="none"/>
    </clipPath>
  </defs>
  <g id="Group_18121" data-name="Group 18121" transform="translate(7264 -778)">
    <rect id="Rectangle_7267" data-name="Rectangle 7267" width="50" height="50" transform="translate(-7264 778)" fill="none"/>
    <g id="Group_18121-2" data-name="Group 18121" transform="translate(-7261 780.867)">
      <g id="Group_6" data-name="Group 6" clip-path="url(#clip-path)">
        <path id="Path_15" data-name="Path 15" d="M39.655,25.045H34.089V23.654h5.566a2.09,2.09,0,0,0,2.087-2.087V3.478a2.089,2.089,0,0,0-2.087-2.087H3.479A2.089,2.089,0,0,0,1.392,3.478V21.566a2.09,2.09,0,0,0,2.087,2.087H7.653v1.391H3.479A3.483,3.483,0,0,1,0,21.566V3.478A3.483,3.483,0,0,1,3.479,0H39.655a3.482,3.482,0,0,1,3.478,3.478V21.566a3.482,3.482,0,0,1-3.478,3.478" fill="#fff"/>
        <rect id="Rectangle_5435" data-name="Rectangle 5435" width="1.392" height="5.566" transform="translate(38.959 9.74)" fill="#fff"/>
        <rect id="Rectangle_5436" data-name="Rectangle 5436" width="1.391" height="23.654" transform="translate(36.176 0.696)" fill="#fff"/>
        <rect id="Rectangle_5437" data-name="Rectangle 5437" width="1.392" height="23.654" transform="translate(4.174 0.696)" fill="#fff"/>
        <path id="Path_16" data-name="Path 16" d="M28.559,45.716l-.432-1.322a12.522,12.522,0,1,0-7.781,0l-.432,1.322a13.914,13.914,0,1,1,8.645,0" transform="translate(-3.366 -6.058)" fill="#fff"/>
        <rect id="Rectangle_5438" data-name="Rectangle 5438" width="16.697" height="1.391" transform="translate(12.523 2.783)" fill="#fff"/>
        <rect id="Rectangle_5439" data-name="Rectangle 5439" width="16.697" height="1.391" transform="translate(12.523 5.566)" fill="#fff"/>
        <rect id="Rectangle_5440" data-name="Rectangle 5440" width="16.697" height="1.391" transform="translate(12.523 8.349)" fill="#fff"/>
        <path id="Path_17" data-name="Path 17" d="M28.611,50.65a4.876,4.876,0,0,1-4.87-4.87V29.548l4.87-6.494,4.87,6.494V45.78a4.876,4.876,0,0,1-4.87,4.87M25.133,30.011V45.78a3.479,3.479,0,1,0,6.957,0V30.011l-3.479-4.637Z" transform="translate(-7.741 -7.517)" fill="#fff"/>
        <rect id="Rectangle_5441" data-name="Rectangle 5441" width="8.348" height="1.391" transform="translate(16.697 21.566)" fill="#fff"/>
        <rect id="Rectangle_5442" data-name="Rectangle 5442" width="1.392" height="11.827" transform="translate(20.175 22.263)" fill="#fff"/>
        <rect id="Rectangle_5443" data-name="Rectangle 5443" width="8.348" height="1.391" transform="translate(16.697 36.176)" fill="#fff"/>
        <rect id="Rectangle_5444" data-name="Rectangle 5444" width="8.348" height="1.391" transform="translate(16.697 33.394)" fill="#fff"/>
      </g>
    </g>
  </g>
</svg>
